<?xml version="1.0" encoding="UTF-8"?>
<svg version="1.1" xmlns="http://www.w3.org/2000/svg" width="1024" height="1024">
<path d="M0 0 C337.92 0 675.84 0 1024 0 C1024 337.92 1024 675.84 1024 1024 C686.08 1024 348.16 1024 0 1024 C0 686.08 0 348.16 0 0 Z " fill="#FEFEFE" transform="translate(0,0)"/>
<path d="M0 0 C19 0 19 0 24.375 4.9375 C25.51630233 6.62438094 26.65472057 8.31433778 27.73095703 10.04345703 C29.67301951 13.0376257 31.87664839 15.81589823 34.06689453 18.63110352 C35.73764408 20.77877611 37.38088487 22.94497504 39.01953125 25.1171875 C41.58702375 28.49568555 44.2557728 31.76373945 47 35 C49.95763585 33.69414902 51.76231178 32.42325073 53.77734375 29.90234375 C54.28346191 29.27328125 54.78958008 28.64421875 55.31103516 27.99609375 C55.84776855 27.31675781 56.38450195 26.63742187 56.9375 25.9375 C57.51032715 25.23882812 58.0831543 24.54015625 58.67333984 23.8203125 C61.72345226 20.0596483 64.51640588 16.27338466 67.07421875 12.16015625 C67.84294312 10.99141968 67.84294312 10.99141968 68.62719727 9.79907227 C70.14026634 7.54019959 70.14026634 7.54019959 71.36694336 5.23413086 C72.7578125 3.15625 72.7578125 3.15625 77 0 C83.27 0 89.54 0 96 0 C96 28.71 96 57.42 96 87 C89.4 87 82.8 87 76 87 C75.67 69.51 75.34 52.02 75 34 C67.52014977 43.13153272 67.52014977 43.13153272 60.1875 52.375 C58.86151651 54.07089305 57.53567749 55.76642783 56.19677734 57.45214844 C55.07624282 58.90139137 54.02902648 60.40649756 52.98828125 61.9140625 C51 64 51 64 48.609375 64.70703125 C44.63091943 63.62903655 42.71424367 60.79638629 40.25 57.6875 C39.72994385 57.05537598 39.2098877 56.42325195 38.67407227 55.77197266 C37.61302232 54.47905702 36.55838648 53.18085075 35.51025391 51.87744141 C34.12879345 50.16010696 32.73156238 48.45785715 31.32421875 46.76171875 C28.12840032 42.8963999 25.00978776 39.01305035 22 35 C21.67 52.16 21.34 69.32 21 87 C14.07 87 7.14 87 0 87 C0 58.29 0 29.58 0 0 Z " fill="#050505" transform="translate(565,463)"/>
<path d="M0 0 C-0.5479083 4.2829452 -2.02432804 6.85135641 -4.5625 10.3125 C-5.20316406 11.19550781 -5.84382813 12.07851563 -6.50390625 12.98828125 C-6.99761719 13.65214844 -7.49132812 14.31601562 -8 15 C-12.33388558 14.22688834 -15.96285091 12.76166506 -20 11 C-23.87198546 9.70055817 -27.83307092 9.77966553 -31.875 9.75 C-32.56980469 9.729375 -33.26460938 9.70875 -33.98046875 9.6875 C-38.7334112 9.65169629 -42.02647935 10.36511969 -46 13 C-47.3309316 16.39969811 -47.3309316 16.39969811 -47 20 C-44.21759202 23.57127277 -41.96719437 24.58207318 -37.5625 25.30859375 C-35.98057861 25.58872314 -35.98057861 25.58872314 -34.36669922 25.87451172 C-33.25568848 26.06029785 -32.14467773 26.24608398 -31 26.4375 C-6.43384505 30.97952466 -6.43384505 30.97952466 1 41 C4.63864383 46.98615597 4.92511858 53.17725048 4 60 C1.42308452 67.71881627 -4.29029036 73.37373818 -11.3046875 77.28515625 C-23.87842479 83.19100256 -39.74773937 82.52798396 -52.7265625 78.27734375 C-66.81290323 72.78064516 -66.81290323 72.78064516 -70 68 C-68.38287572 65.66083869 -66.75694638 63.32878299 -65.125 61 C-64.66480469 60.33226562 -64.20460938 59.66453125 -63.73046875 58.9765625 C-62.53694054 57.28140649 -61.27309661 55.6362422 -60 54 C-59.34 54 -58.68 54 -58 54 C-58 54.66 -58 55.32 -58 56 C-46.45659179 60.70208555 -33.45108503 65.49622883 -21.1875 60.4375 C-18.13209169 58.60947793 -18.0298492 58.1000826 -16.9375 54.4375 C-16.82837898 51.01664712 -16.82837898 51.01664712 -18 48 C-23.24602948 45.65511896 -29.05738918 45.06042366 -34.6875 44.125 C-57.32583559 40.14320603 -57.32583559 40.14320603 -64 32 C-67.82790728 26.06446521 -69.19852731 19.97714111 -68 13 C-65.54882672 5.12796272 -61.08826272 0.08604747 -54 -4 C-36.45449219 -12.82512855 -16.88731506 -7.57533814 0 0 Z " fill="#060606" transform="translate(346,470)"/>
<path d="M0 0 C-1.3255581 3.62276315 -2.94346955 6.63505348 -5.125 9.8125 C-5.66382813 10.60269531 -6.20265625 11.39289063 -6.7578125 12.20703125 C-7.16773438 12.79871094 -7.57765625 13.39039063 -8 14 C-12.33388558 13.22688834 -15.96285091 11.76166506 -20 10 C-23.87198546 8.70055817 -27.83307092 8.77966553 -31.875 8.75 C-32.56980469 8.729375 -33.26460937 8.70875 -33.98046875 8.6875 C-38.73188484 8.65170779 -42.03126684 9.35821732 -46 12 C-47.24285895 15.44874671 -47.24285895 15.44874671 -47 19 C-42.50078132 24.74133426 -33.73881434 25.29912375 -27 26.5 C-15.54818715 28.5456759 -7.10333371 31.0765139 0.703125 40.12109375 C4.55242319 45.69793841 4.83692479 51.4367477 4 58 C1.71519909 65.3219899 -2.52321105 70.9002144 -9 75 C-23.36841005 81.52747714 -39.07685127 82.10668402 -54.0390625 77.13671875 C-60.99465785 74.46643083 -64.57879844 72.42120156 -70 67 C-67.03 62.71 -64.06 58.42 -61 54 C-57.15797713 54.76840457 -55.36137904 55.16680959 -52.1875 56.9375 C-43.06786815 61.60770253 -32.74601526 62.70761739 -22.875 59.6875 C-19.52672242 58.52848084 -19.0900239 58.13503585 -17 55 C-16.83974601 51.45421315 -16.83974601 51.45421315 -18 48 C-22.9113773 44.74650442 -27.86386374 44.28595346 -33.5625 43.625 C-44.43689346 42.1629883 -56.75992454 40.12249508 -64 31 C-67.61649939 25.27207132 -68.97984323 19.71551092 -68 13 C-66.53443774 6.84463851 -63.65659607 1.58061206 -58.3671875 -2.15234375 C-40.18765021 -12.95408676 -17.54625327 -11.55484972 0 0 Z " fill="#050505" transform="translate(744,471)"/>
<path d="M0 0 C7.26 0 14.52 0 22 0 C25.73547875 8.82297779 29.24585432 17.71026595 32.65673828 26.66259766 C33.49652158 28.86587393 34.33985396 31.06776752 35.18359375 33.26953125 C38.24925007 41.28941909 41.21872548 49.33154514 44.03710938 57.44189453 C44.76090741 59.89846728 44.76090741 59.89846728 46 61 C46.30591064 60.14696289 46.61182129 59.29392578 46.92700195 58.41503906 C53.97076268 38.81158805 61.26872182 19.34341449 69 0 C76.59 0 84.18 0 92 0 C87.82096487 11.49234662 83.23124836 22.78691746 78.53295898 34.07519531 C75.2561192 41.95030047 72.03452855 49.84440022 68.88525391 57.77148438 C64.99836309 67.54493946 60.99215267 77.26912787 57 87 C49.74 87 42.48 87 35 87 C29.01175384 73.19658511 23.24241449 59.32087055 17.60668945 45.37109375 C13.74156249 35.80436375 9.83583495 26.25739444 5.76171875 16.77734375 C5.41689453 15.97232422 5.07207031 15.16730469 4.71679688 14.33789062 C4.01482987 12.70085561 3.30893188 11.06550198 2.59960938 9.43164062 C2.26123047 8.63822266 1.92285156 7.84480469 1.57421875 7.02734375 C1.27088623 6.32343506 0.96755371 5.61952637 0.6550293 4.89428711 C0 3 0 3 0 0 Z " fill="#050505" transform="translate(352,463)"/>
<path d="M0 0 C26.4 0 52.8 0 80 0 C80 6.93 80 13.86 80 21 C53.6 21 27.2 21 0 21 C0 14.07 0 7.14 0 0 Z " fill="#000000" transform="translate(462,527)"/>
<path d="M0 0 C26.4 0 52.8 0 80 0 C80 6.93 80 13.86 80 21 C53.6 21 27.2 21 0 21 C0 14.07 0 7.14 0 0 Z " fill="#000000" transform="translate(462,495)"/>
<path d="M0 0 C26.4 0 52.8 0 80 0 C80 6.93 80 13.86 80 21 C53.6 21 27.2 21 0 21 C0 14.07 0 7.14 0 0 Z " fill="#000000" transform="translate(462,463)"/>
<path d="M0 0 C0.99 0.33 1.98 0.66 3 1 C3.6875 3.0625 3.6875 3.0625 4 5 C3.01 5.495 3.01 5.495 2 6 C2.66 6.66 3.32 7.32 4 8 C3.9765625 10.1640625 3.9765625 10.1640625 3.625 12.625 C3.45871094 13.85089844 3.45871094 13.85089844 3.2890625 15.1015625 C3.14597656 16.04128906 3.14597656 16.04128906 3 17 C3.66 17.33 4.32 17.66 5 18 C3.02 18 1.04 18 -1 18 C-0.34 17.67 0.32 17.34 1 17 C1 15.68 1 14.36 1 13 C-1.31 13 -3.62 13 -6 13 C-5.67 14.65 -5.34 16.3 -5 18 C-5.99 18 -6.98 18 -8 18 C-8.33 14.37 -8.66 10.74 -9 7 C-11.97 6.67 -14.94 6.34 -18 6 C-18 5.67 -18 5.34 -18 5 C-12.39 5 -6.78 5 -1 5 C-0.67 3.35 -0.34 1.7 0 0 Z " fill="#EBEBEB" transform="translate(410,545)"/>
<path d="M0 0 C2.01822917 0.06510417 4.03645833 0.13020833 6.0546875 0.1953125 C6.0546875 1.1853125 6.0546875 2.1753125 6.0546875 3.1953125 C6.7146875 3.1953125 7.3746875 3.1953125 8.0546875 3.1953125 C7.50745067 6.56993965 6.9997875 8.2776625 5.0546875 11.1953125 C3.1796875 11.59375 3.1796875 11.59375 1.0546875 11.5703125 C0.3534375 11.57804688 -0.3478125 11.58578125 -1.0703125 11.59375 C-2.9453125 11.1953125 -2.9453125 11.1953125 -4.9453125 8.1953125 C-4.31164586 0.43289617 -4.31164586 0.43289617 0 0 Z " fill="#EAEAEA" transform="translate(519.9453125,551.8046875)"/>
<path d="M0 0 C1.9375 1.125 1.9375 1.125 3 3 C2.77669287 6.64734979 2.61627165 8.38372835 0 11 C-3.10347254 11.33015665 -5.15781176 11.50531294 -7.875 9.875 C-9.52149743 7.13083761 -9.39964378 5.1305429 -9 2 C-5.53076119 -0.31282587 -4.07794425 -0.42478586 0 0 Z " fill="#919191" transform="translate(440,552)"/>
<path d="M0 0 C1.875 1.1875 1.875 1.1875 3 3 C3.42822025 5.85480169 3.40659584 7.34492892 1.875 9.8125 C-0.87155972 11.55198782 -2.81846974 11.39769128 -6 11 C-7.875 9.8125 -7.875 9.8125 -9 8 C-9.42822025 5.14519831 -9.40659584 3.65507108 -7.875 1.1875 C-5.12844028 -0.55198782 -3.18153026 -0.39769128 0 0 Z " fill="#919191" transform="translate(495,552)"/>
<path d="M0 0 C3.63 0 7.26 0 11 0 C9.68 0.33 8.36 0.66 7 1 C7 4.3 7 7.6 7 11 C4.36 11 1.72 11 -1 11 C-2.08427519 6.54242423 -1.44360116 4.33080349 0 0 Z " fill="#F3F3F3" transform="translate(459,552)"/>
<path d="M0 0 C3.27066566 -0.08706892 6.54103365 -0.14041241 9.8125 -0.1875 C10.74126953 -0.21263672 11.67003906 -0.23777344 12.62695312 -0.26367188 C13.9659668 -0.27817383 13.9659668 -0.27817383 15.33203125 -0.29296875 C16.56530151 -0.31653442 16.56530151 -0.31653442 17.82348633 -0.34057617 C20.47502434 0.07433079 21.33263592 0.95529751 23 3 C22.505 3.53625 22.01 4.0725 21.5 4.625 C19.62510456 7.59358445 19.76498575 9.55312427 20 13 C18.35 13 16.7 13 15 13 C15.66 12.67 16.32 12.34 17 12 C16.319375 10.3603125 16.319375 10.3603125 15.625 8.6875 C15.36976563 8.07261719 15.11453125 7.45773437 14.8515625 6.82421875 C13.93193308 4.73466068 13.93193308 4.73466068 12 2 C9.11404054 1.41518879 9.11404054 1.41518879 5.875 1.3125 C4.77929688 1.24675781 3.68359375 1.18101562 2.5546875 1.11328125 C1.71164062 1.07589844 0.86859375 1.03851562 0 1 C0 0.67 0 0.34 0 0 Z " fill="#F0F0F0" transform="translate(641,550)"/>
<path d="M0 0 C2.64 0 5.28 0 8 0 C8.103125 0.70125 8.20625 1.4025 8.3125 2.125 C9.09359003 5.39137647 10.42058743 8.0471852 12 11 C9 11 9 11 6.3125 8.5 C5.549375 7.675 4.78625 6.85 4 6 C4 7.32 4 8.64 4 10 C4.66 10.33 5.32 10.66 6 11 C4.02 11 2.04 11 0 11 C0.66 10.67 1.32 10.34 2 10 C2 7.03 2 4.06 2 1 C1.34 0.67 0.68 0.34 0 0 Z " fill="#2B2B2B" transform="translate(542,552)"/>
<path d="M0 0 C1.65 0 3.3 0 5 0 C4.01 0.495 4.01 0.495 3 1 C3 2.32 3 3.64 3 5 C4.98 5 6.96 5 9 5 C9 3.68 9 2.36 9 1 C8.34 0.67 7.68 0.34 7 0 C8.98 0 10.96 0 13 0 C12.01 0.495 12.01 0.495 11 1 C11 3.97 11 6.94 11 10 C11.66 10.33 12.32 10.66 13 11 C11.02 11 9.04 11 7 11 C7.66 10.67 8.32 10.34 9 10 C9 8.68 9 7.36 9 6 C7.02 6 5.04 6 3 6 C3.33 7.65 3.66 9.3 4 11 C2.35 11 0.7 11 -1 11 C-0.34 10.67 0.32 10.34 1 10 C0.67 6.7 0.34 3.4 0 0 Z " fill="#313131" transform="translate(624,552)"/>
<path d="M0 0 C1.65 0 3.3 0 5 0 C4.01 0.495 4.01 0.495 3 1 C3 2.32 3 3.64 3 5 C5.31 5 7.62 5 10 5 C10 3.68 10 2.36 10 1 C9.34 0.67 8.68 0.34 8 0 C9.65 0 11.3 0 13 0 C12.67 3.3 12.34 6.6 12 10 C12.66 10.33 13.32 10.66 14 11 C12.02 11 10.04 11 8 11 C8.66 10.67 9.32 10.34 10 10 C10 8.68 10 7.36 10 6 C7.69 6 5.38 6 3 6 C3.33 7.65 3.66 9.3 4 11 C3.01 11 2.02 11 1 11 C0.67 7.37 0.34 3.74 0 0 Z " fill="#2C2C2C" transform="translate(401,552)"/>
<path d="M0 0 C0.66 0 1.32 0 2 0 C2.27714844 0.62648438 2.55429687 1.25296875 2.83984375 1.8984375 C3.20207031 2.71570313 3.56429687 3.53296875 3.9375 4.375 C4.29714844 5.18710937 4.65679688 5.99921875 5.02734375 6.8359375 C5.6569903 8.23683785 6.31312642 9.62625284 7 11 C5.35 11 3.7 11 2 11 C2.33 10.01 2.66 9.02 3 8 C1.35 8 -0.3 8 -2 8 C-1.67 8.99 -1.34 9.98 -1 11 C-2.32 10.67 -3.64 10.34 -5 10 C-3.35 6.7 -1.7 3.4 0 0 Z " fill="#787878" transform="translate(575,552)"/>
<path d="M0 0 C2.31 0 4.62 0 7 0 C7 1.32 7 2.64 7 4 C6.34 4 5.68 4 5 4 C4.34 5.32 3.68 6.64 3 8 C2.67 7.34 2.34 6.68 2 6 C0.35 6.66 -1.3 7.32 -3 8 C-3.33 6.68 -3.66 5.36 -4 4 C-2.68 4 -1.36 4 0 4 C0 2.68 0 1.36 0 0 Z " fill="#F5F5F5" transform="translate(404,558)"/>
<path d="M0 0 C1.670625 0.061875 1.670625 0.061875 3.375 0.125 C3.375 0.455 3.375 0.785 3.375 1.125 C1.065 1.455 -1.245 1.785 -3.625 2.125 C-2.965 4.435 -2.305 6.745 -1.625 9.125 C-0.305 9.455 1.015 9.785 2.375 10.125 C2.375 9.465 2.375 8.805 2.375 8.125 C1.715 7.795 1.055 7.465 0.375 7.125 C2.025 7.125 3.675 7.125 5.375 7.125 C4.715 8.445 4.055 9.765 3.375 11.125 C2.09625 11.186875 0.8175 11.24875 -0.5 11.3125 C-1.21929688 11.34730469 -1.93859375 11.38210938 -2.6796875 11.41796875 C-3.32164062 11.32128906 -3.96359375 11.22460938 -4.625 11.125 C-6.625 8.125 -6.625 8.125 -6.375 5.0625 C-5.25898775 0.69145203 -4.55212721 0.1569699 0 0 Z " fill="#393939" transform="translate(521.625,551.875)"/>
<path d="M0 0 C2.64 0.99 5.28 1.98 8 3 C8 3.99 8 4.98 8 6 C4.25 7.125 4.25 7.125 2 6 C0.32345271 6.27942455 -1.34608154 6.60828247 -3 7 C-3.33 5.68 -3.66 4.36 -4 3 C-3.01 2.67 -2.02 2.34 -1 2 C-0.67 1.34 -0.34 0.68 0 0 Z " fill="#ECECEC" transform="translate(284,544)"/>
<path d="M0 0 C2.64 0 5.28 0 8 0 C8.33 1.65 8.66 3.3 9 5 C8.01 5 7.02 5 6 5 C6 4.01 6 3.02 6 2 C5.34 1.67 4.68 1.34 4 1 C4.185625 1.928125 4.37125 2.85625 4.5625 3.8125 C5 7 5 7 4 10 C4.66 10.33 5.32 10.66 6 11 C4.02 11 2.04 11 0 11 C0.66 10.67 1.32 10.34 2 10 C2 7.03 2 4.06 2 1 C1.34 0.67 0.68 0.34 0 0 Z " fill="#353535" transform="translate(598,552)"/>
<path d="M0 0 C3.63 0 7.26 0 11 0 C9.68 0.33 8.36 0.66 7 1 C7 4.3 7 7.6 7 11 C5.68 10.67 4.36 10.34 3 10 C3.33 7.03 3.66 4.06 4 1 C2.68 1.33 1.36 1.66 0 2 C0 1.34 0 0.68 0 0 Z " fill="#414141" transform="translate(459,552)"/>
<path d="M0 0 C2.64 0 5.28 0 8 0 C8.33 1.32 8.66 2.64 9 4 C8.34 4 7.68 4 7 4 C6.67 3.34 6.34 2.68 6 2 C5.01 1.67 4.02 1.34 3 1 C3 3.97 3 6.94 3 10 C3.99 10.33 4.98 10.66 6 11 C4.02 11 2.04 11 0 11 C0 7.37 0 3.74 0 0 Z " fill="#454545" transform="translate(376,552)"/>
<path d="M0 0 C1.32 0.33 2.64 0.66 4 1 C3.67 1.66 3.34 2.32 3 3 C3.33 3.33 3.66 3.66 4 4 C4.04063832 5.66617115 4.042721 7.33388095 4 9 C0.34683329 7.75023244 -0.78065836 7.32901247 -3 4 C-2.01 2.68 -1.02 1.36 0 0 Z " fill="#121212" transform="translate(279,534)"/>
<path d="M0 0 C1.33332095 2.6666419 0.67102033 4.16680303 0 7 C1.134375 7.4125 2.26875 7.825 3.4375 8.25 C7 10 7 10 7.9375 12.1875 C7.958125 12.785625 7.97875 13.38375 8 14 C3.66853749 12.81869204 0.57101236 11.80509829 -2 8 C-1.67857143 1.67857143 -1.67857143 1.67857143 0 0 Z " fill="#DADADA" transform="translate(698,482)"/>
<path d="M0 0 C0 3 0 3 0 3 Z M-2 3 C-1.87625 3.598125 -1.7525 4.19625 -1.625 4.8125 C-1.04524015 7.26231348 -1.04524015 7.26231348 1 10 C0.01 10 -0.98 10 -2 10 C-4.34210921 10.63514826 -6.67684969 11.2986716 -9 12 C-8.02180976 10.68677212 -7.0424189 9.37443848 -6.0625 8.0625 C-5.51722656 7.33160156 -4.97195313 6.60070312 -4.41015625 5.84765625 C-3 4 -3 4 -2 3 Z " fill="#191919" transform="translate(631,477)"/>
<path d="M0 0 C2.0625 0.75 2.0625 0.75 4 2 C4.33 2.99 4.66 3.98 5 5 C4.67 5.66 4.34 6.32 4 7 C1.4375 7.625 1.4375 7.625 -1 8 C-0.979375 7.21625 -0.95875 6.4325 -0.9375 5.625 C-0.81315937 3.01885039 -0.81315937 3.01885039 -2 1 C-1.34 0.67 -0.68 0.34 0 0 Z " fill="#0D0D0D" transform="translate(338,504)"/>
<path d="M0 0 C1.32 0 2.64 0 4 0 C6.74386457 3.45523687 7.49646154 6.66956925 8 11 C6.35 11 4.7 11 3 11 C3.66 10.67 4.32 10.34 5 10 C4.54625 8.906875 4.0925 7.81375 3.625 6.6875 C3.36976563 6.07261719 3.11453125 5.45773437 2.8515625 4.82421875 C1.93193308 2.73466068 1.93193308 2.73466068 0 0 Z " fill="#373737" transform="translate(653,552)"/>
<path d="M0 0 C1.65 0.33 3.3 0.66 5 1 C5.33 2.32 5.66 3.64 6 5 C4 6 4 6 0.875 5.0625 C-0.07375 4.711875 -1.0225 4.36125 -2 4 C-1.34 2.68 -0.68 1.36 0 0 Z " fill="#F6F6F6" transform="translate(370,458)"/>
<path d="M0 0 C1.98 0 3.96 0 6 0 C6 1.32 6 2.64 6 4 C4.35 4.66 2.7 5.32 1 6 C0.67 4.02 0.34 2.04 0 0 Z " fill="#F5F5F5" transform="translate(627,558)"/>
<path d="M0 0 C2 3.75 2 3.75 2 6 C1.0409375 6.37125 1.0409375 6.37125 0.0625 6.75 C-2.18741541 7.81562433 -2.18741541 7.81562433 -2.75 10.125 C-2.8325 10.74375 -2.915 11.3625 -3 12 C-4.32 11.34 -5.64 10.68 -7 10 C-6.21625 9.0925 -5.4325 8.185 -4.625 7.25 C-2.69947504 4.94809764 -1.17794259 2.78422793 0 0 Z " fill="#DBDBDB" transform="translate(746,532)"/>
<path d="M0 0 C1.32 0.33 2.64 0.66 4 1 C4 1.66 4 2.32 4 3 C4.66 3.33 5.32 3.66 6 4 C5.195625 4.268125 4.39125 4.53625 3.5625 4.8125 C2.716875 5.204375 1.87125 5.59625 1 6 C0.67 6.99 0.34 7.98 0 9 C0 6.03 0 3.06 0 0 Z " fill="#A2A2A2" transform="translate(379,553)"/>
<path d="M0 0 C1.51953125 1.36328125 1.51953125 1.36328125 3 3 C2.6875 5.1875 2.6875 5.1875 2 7 C1.01 7 0.02 7 -1 7 C-1.66 8.32 -2.32 9.64 -3 11 C-3.33 10.34 -3.66 9.68 -4 9 C-3.22265625 6.8359375 -3.22265625 6.8359375 -2.0625 4.375 C-1.68222656 3.55773437 -1.30195313 2.74046875 -0.91015625 1.8984375 C-0.60980469 1.27195312 -0.30945313 0.64546875 0 0 Z " fill="#E0E0E0" transform="translate(435,484)"/>
<path d="M0 0 C0.928125 0.33 1.85625 0.66 2.8125 1 C5.92029291 2.14967004 5.92029291 2.14967004 9 2 C8.67 3.32 8.34 4.64 8 6 C5.69 5.67 3.38 5.34 1 5 C0.67 3.35 0.34 1.7 0 0 Z " fill="#E9E9E9" transform="translate(680,520)"/>
<path d="M0 0 C1.5625 1.6875 1.5625 1.6875 3 4 C2.6875 6.75 2.6875 6.75 2 9 C0.35 7.35 -1.3 5.7 -3 4 C-2.01 2.68 -1.02 1.36 0 0 Z " fill="#101010" transform="translate(682,496)"/>
<path d="M0 0 C2.375 -0.125 2.375 -0.125 5 0 C7 2 7 2 7 5 C6.01 5 5.02 5 4 5 C3.67 6.65 3.34 8.3 3 10 C2.67 10 2.34 10 2 10 C2 7.03 2 4.06 2 1 C1.34 0.67 0.68 0.34 0 0 Z " fill="#848484" transform="translate(542,552)"/>
<path d="M0 0 C2.31 0 4.62 0 7 0 C5.515 2.475 5.515 2.475 4 5 C2.68 4.34 1.36 3.68 0 3 C0 2.01 0 1.02 0 0 Z " fill="#A8A8A8" transform="translate(657,552)"/>
<path d="M0 0 C3 2 3 2 4 4 C3.34 4.66 2.68 5.32 2 6 C1.67 5.67 1.34 5.34 1 5 C-1.05396726 5.40929986 -1.05396726 5.40929986 -3 6 C-3.33 5.34 -3.66 4.68 -4 4 C-2.66666667 2.66666667 -1.33333333 1.33333333 0 0 Z " fill="#F3F3F3" transform="translate(660,457)"/>
<path d="M0 0 C3.4375 -0.4375 3.4375 -0.4375 7 0 C8.9375 2 8.9375 2 10 4 C8.35 4 6.7 4 5 4 C5.33 3.01 5.66 2.02 6 1 C4.35 1 2.7 1 1 1 C1.33 1.99 1.66 2.98 2 4 C0.68 3.67 -0.64 3.34 -2 3 C-1.34 2.01 -0.68 1.02 0 0 Z " fill="#3A3A3A" transform="translate(572,559)"/>
<path d="M0 0 C0.99 0.33 1.98 0.66 3 1 C2.8125 3.375 2.8125 3.375 2 6 C-0.5625 7.3125 -0.5625 7.3125 -3 8 C-3.33 6.68 -3.66 5.36 -4 4 C-2.68 4 -1.36 4 0 4 C0 2.68 0 1.36 0 0 Z " fill="#D5D5D5" transform="translate(404,558)"/>
<path d="M0 0 C2.46800047 1.15173355 4.04783565 2.04783565 6 4 C5.01 4.99 4.02 5.98 3 7 C2.01 6.67 1.02 6.34 0 6 C0 4.02 0 2.04 0 0 Z " fill="#0E0E0E" transform="translate(632,496)"/>
<path d="M0 0 C0.33 0.99 0.66 1.98 1 3 C2.65 3 4.3 3 6 3 C6 3.66 6 4.32 6 5 C6.66 5.66 7.32 6.32 8 7 C6.35 7.33 4.7 7.66 3 8 C0.37613513 4.93882432 0 4.26826873 0 0 Z " fill="#DEDEDE" transform="translate(298,486)"/>
<path d="M0 0 C0.99 0.33 1.98 0.66 3 1 C2.01 1.495 2.01 1.495 1 2 C0.34786708 4.02463255 0.34786708 4.02463255 0 6 C-1.65 6.33 -3.3 6.66 -5 7 C-3.35 4.69 -1.7 2.38 0 0 Z " fill="#E7E7E7" transform="translate(623,517)"/>
<path d="M0 0 C1.32 1.32 2.64 2.64 4 4 C3.34 4.66 2.68 5.32 2 6 C1.34 6 0.68 6 0 6 C0 5.34 0 4.68 0 4 C-0.99 3.67 -1.98 3.34 -3 3 C-2.34 3 -1.68 3 -1 3 C-0.67 2.01 -0.34 1.02 0 0 Z " fill="#E6E6E6" transform="translate(737,482)"/>
<path d="M0 0 C2.475 0.495 2.475 0.495 5 1 C5.33 1.99 5.66 2.98 6 4 C4.125 4.625 4.125 4.625 2 5 C1.34 4.34 0.68 3.68 0 3 C0 2.01 0 1.02 0 0 Z " fill="#F1F1F1" transform="translate(599,480)"/>
<path d="M0 0 C0.99 0.33 1.98 0.66 3 1 C2.01 2.98 1.02 4.96 0 7 C-0.33 6.34 -0.66 5.68 -1 5 C-1.66 4.67 -2.32 4.34 -3 4 C-2.01 2.68 -1.02 1.36 0 0 Z " fill="#E9E9E9" transform="translate(278,530)"/>
<path d="M0 0 C1.65 1.65 3.3 3.3 5 5 C1.125 7 1.125 7 0 7 C0 4.69 0 2.38 0 0 Z " fill="#ECECEC" transform="translate(586,497)"/>
<path d="M0 0 C0.66 0 1.32 0 2 0 C2.33 1.32 2.66 2.64 3 4 C1.02 4.99 1.02 4.99 -1 6 C-1.33 5.01 -1.66 4.02 -2 3 C-1.34 2.01 -0.68 1.02 0 0 Z " fill="#E9E9E9" transform="translate(664,552)"/>
<path d="M0 0 C0.99 0.33 1.98 0.66 3 1 C3 2.32 3 3.64 3 5 C1.68 5 0.36 5 -1 5 C-0.67 3.35 -0.34 1.7 0 0 Z " fill="#F6F6F6" transform="translate(630,552)"/>
<path d="M0 0 C1.32 0.66 2.64 1.32 4 2 C4 2.99 4 3.98 4 5 C2.02 4.34 0.04 3.68 -2 3 C-1.34 2.01 -0.68 1.02 0 0 Z " fill="#E3E3E3" transform="translate(341,465)"/>
</svg>
